<svg width="409" height="32" viewBox="0 0 409 32" fill="none" xmlns="http://www.w3.org/2000/svg">
<path d="M399 13H393V15H397V19H399V13Z" fill="#EAEAEA"/>
<path d="M399 23H397V27H393V29H399V23Z" fill="#EAEAEA"/>
<path d="M385 19V15H389V13H383V19H385Z" fill="#EAEAEA"/>
<path d="M383 23V29H389V27H385V23H383Z" fill="#EAEAEA"/>
<path d="M399.5 13V12.5H399H393H392.5V13V15V15.5H393H396.5V19V19.5H397H399H399.5V19V13ZM399.5 23V22.5H399H397H396.5V23V26.5H393H392.5V27V29V29.5H393H399H399.5V29V23ZM385 19.5H385.5V19V15.5H389H389.5V15V13V12.5H389H383H382.5V13V19V19.5H383H385ZM383 22.5H382.5V23V29V29.5H383H389H389.5V29V27V26.5H389H385.5V23V22.5H385H383Z" stroke="black" stroke-opacity="0.1"/>
<mask id="path-3-outside-1_236_1972" maskUnits="userSpaceOnUse" x="343" y="11" width="24" height="20" fill="black">
<rect fill="white" x="343" y="11" width="24" height="20"/>
<path fill-rule="evenodd" clip-rule="evenodd" d="M345 12C344.448 12 344 12.4478 344 13V16C344 16.5523 344.448 17 345 17C345.552 17 346 16.5523 346 16V15C346 14.4477 346.448 14 347 14H363C363.552 14 364 14.4477 364 15V27C364 27.5523 363.552 28 363 28H358C357.448 28 357 28.4477 357 29C357 29.5523 357.448 30 358 30H365C365.552 30 366 29.5522 366 29V13C366 12.4478 365.552 12 365 12H345ZM352.945 29.0016C353.006 29.5506 353.448 30 354 30C354.552 30 355.005 29.5508 354.955 29.0007C354.48 23.723 350.277 19.52 344.999 19.0448C344.449 18.9952 344 19.4477 344 20C344 20.5523 344.449 20.9942 344.998 21.0548C349.171 21.5153 352.485 24.8288 352.945 29.0016ZM350 30C350.552 30 351.008 29.5497 350.93 29.003C350.492 25.9349 348.065 23.508 344.997 23.0705C344.45 22.9925 344 23.4477 344 24C344 24.5523 344.452 24.9896 344.994 25.0987C346.958 25.4948 348.505 27.0421 348.901 29.0064C349.01 29.5478 349.448 30 350 30ZM344 28C344 27.4477 344.46 26.9837 344.982 27.1644C345.849 27.4646 346.535 28.1512 346.836 29.0181C347.016 29.54 346.552 30 346 30H345C344.448 30 344 29.5523 344 29V28Z"/>
</mask>
<path fill-rule="evenodd" clip-rule="evenodd" d="M345 12C344.448 12 344 12.4478 344 13V16C344 16.5523 344.448 17 345 17C345.552 17 346 16.5523 346 16V15C346 14.4477 346.448 14 347 14H363C363.552 14 364 14.4477 364 15V27C364 27.5523 363.552 28 363 28H358C357.448 28 357 28.4477 357 29C357 29.5523 357.448 30 358 30H365C365.552 30 366 29.5522 366 29V13C366 12.4478 365.552 12 365 12H345ZM352.945 29.0016C353.006 29.5506 353.448 30 354 30C354.552 30 355.005 29.5508 354.955 29.0007C354.48 23.723 350.277 19.52 344.999 19.0448C344.449 18.9952 344 19.4477 344 20C344 20.5523 344.449 20.9942 344.998 21.0548C349.171 21.5153 352.485 24.8288 352.945 29.0016ZM350 30C350.552 30 351.008 29.5497 350.93 29.003C350.492 25.9349 348.065 23.508 344.997 23.0705C344.45 22.9925 344 23.4477 344 24C344 24.5523 344.452 24.9896 344.994 25.0987C346.958 25.4948 348.505 27.0421 348.901 29.0064C349.01 29.5478 349.448 30 350 30ZM344 28C344 27.4477 344.46 26.9837 344.982 27.1644C345.849 27.4646 346.535 28.1512 346.836 29.0181C347.016 29.54 346.552 30 346 30H345C344.448 30 344 29.5523 344 29V28Z" fill="#EAEAEA"/>
<path d="M344.982 27.1644L344.655 28.1093L344.982 27.1644ZM346.836 29.0181L345.891 29.3453L346.836 29.0181ZM348.901 29.0064L347.921 29.204L348.901 29.0064ZM344.994 25.0987L344.796 26.079L344.994 25.0987ZM350.93 29.003L349.94 29.1441L350.93 29.003ZM344.997 23.0705L344.856 24.0605L344.997 23.0705ZM354.955 29.0007L353.959 29.0904L354.955 29.0007ZM345 13V11C343.895 11 343 11.8955 343 13H345ZM345 16V13H343V16H345ZM345 15V16H347V15H345ZM363 13H347V15H363V13ZM365 27V15H363V27H365ZM358 29H363V27H358V29ZM365 29H358V31H365V29ZM365 29V31C366.105 31 367 30.1045 367 29H365ZM365 13V29H367V13H365ZM365 13H367C367 11.8955 366.105 11 365 11V13ZM345 13H365V11H345V13ZM344.91 20.0407C349.706 20.4726 353.527 24.2941 353.959 29.0904L355.951 28.9111C355.433 23.1518 350.848 18.5674 345.089 18.0488L344.91 20.0407ZM353.939 28.8919C353.427 24.2536 349.746 20.5727 345.108 20.0608L344.889 22.0487C348.596 22.4579 351.542 25.4039 351.951 29.1113L353.939 28.8919ZM344.856 24.0605C347.484 24.4352 349.565 26.5163 349.94 29.1441L351.92 28.8618C351.419 25.3536 348.646 22.5808 345.138 22.0805L344.856 24.0605ZM349.882 28.8087C349.406 26.4498 347.55 24.5941 345.191 24.1185L344.796 26.079C346.366 26.3955 347.605 27.6343 347.921 29.204L349.882 28.8087ZM347.781 28.6909C347.38 27.5342 346.466 26.6199 345.309 26.2194L344.655 28.1093C345.232 28.3092 345.691 28.7681 345.891 29.3453L347.781 28.6909ZM345 31H346V29H345V31ZM343 28V29H345V28H343ZM345 29H343C343 30.1046 343.895 31 345 31V29ZM345.309 26.2194C344.668 25.9973 344.047 26.185 343.626 26.5645C343.225 26.926 343 27.455 343 28H345C345 28.0003 345 28.003 344.998 28.0086C344.995 28.0135 344.988 28.0295 344.965 28.0501C344.941 28.0715 344.897 28.1008 344.832 28.1157C344.762 28.1317 344.698 28.1244 344.655 28.1093L345.309 26.2194ZM345.891 29.3453C345.876 29.3018 345.868 29.2376 345.884 29.1682C345.899 29.1029 345.928 29.059 345.95 29.0352C345.971 29.0124 345.987 29.0045 345.991 29.0024C345.997 29 346 29 346 29V31C346.545 31 347.074 30.7753 347.435 30.3743C347.815 29.9532 348.003 29.3324 347.781 28.6909L345.891 29.3453ZM347.921 29.204C348.1 30.0903 348.857 31 350 31V29C350 29 350 29 350.001 29.0002C350.002 29.0003 350.001 29.0004 350 28.9997C349.997 28.9984 349.986 28.9931 349.97 28.9781C349.935 28.9449 349.897 28.8844 349.882 28.8087L347.921 29.204ZM343 24C343 25.1426 343.91 25.9003 344.796 26.079L345.191 24.1185C345.116 24.1032 345.055 24.0653 345.022 24.0301C345.007 24.0142 345.002 24.0032 345 24.0001C345 23.9986 345 23.9984 345 23.9991C345 24 345 24.0005 345 24H343ZM349.94 29.1441C349.937 29.1242 349.938 29.0966 349.948 29.0686C349.957 29.0423 349.969 29.0249 349.979 29.0152C349.995 28.9979 350.005 29 350 29V31C351.06 31 352.097 30.107 351.92 28.8618L349.94 29.1441ZM345.138 22.0805C343.893 21.9029 343 22.9405 343 24H345C345 23.9954 345.002 24.0049 344.985 24.0214C344.975 24.0307 344.958 24.0434 344.931 24.0523C344.903 24.0618 344.876 24.0633 344.856 24.0605L345.138 22.0805ZM356 29C356 30.1046 356.895 31 358 31V29H356ZM358 27C356.895 27 356 27.8954 356 29H358V27ZM363 27V29C364.105 29 365 28.1046 365 27H363ZM343 20C343 21.1293 343.903 21.9399 344.889 22.0487L345.108 20.0608C345.066 20.0561 345.031 20.0365 345.012 20.0165C345.003 20.0075 345 20.0013 345 20.0001C345 19.9998 345 20.0007 345 20H343ZM363 15V15H365C365 13.8954 364.105 13 363 13V15ZM345.089 18.0488C343.894 17.9412 343 18.9214 343 20H345C345 19.997 345.001 20.0036 344.99 20.0138C344.984 20.0195 344.974 20.0275 344.957 20.0336C344.939 20.0402 344.922 20.0419 344.91 20.0407L345.089 18.0488ZM347 15H347V13C345.895 13 345 13.8954 345 15H347ZM354 29C353.999 29 354 29.0002 354 29C353.999 28.9995 353.993 28.9966 353.984 28.9879C353.964 28.9686 353.944 28.9343 353.939 28.8919L351.951 29.1113C352.06 30.0973 352.871 31 354 31V29ZM345 18C346.105 18 347 17.1046 347 16H345V18ZM354 31C355.079 31 356.059 30.1059 355.951 28.9111L353.959 29.0904C353.958 29.0781 353.96 29.0605 353.966 29.0427C353.972 29.0262 353.981 29.0155 353.986 29.0097C353.996 28.9991 354.003 29 354 29V31ZM343 16C343 17.1046 343.895 18 345 18V16H343Z" fill="black" fill-opacity="0.1" mask="url(#path-3-outside-1_236_1972)"/>
<mask id="path-5-outside-2_236_1972" maskUnits="userSpaceOnUse" x="308" y="13" width="22" height="16" fill="black">
<rect fill="white" x="308" y="13" width="22" height="16"/>
<path fill-rule="evenodd" clip-rule="evenodd" d="M329 14H309V28H329V14ZM327 16H311V26H327V16Z"/>
</mask>
<path fill-rule="evenodd" clip-rule="evenodd" d="M329 14H309V28H329V14ZM327 16H311V26H327V16Z" fill="#EAEAEA"/>
<path d="M309 14V13H308V14H309ZM329 14H330V13H329V14ZM309 28H308V29H309V28ZM329 28V29H330V28H329ZM311 16V15H310V16H311ZM327 16H328V15H327V16ZM311 26H310V27H311V26ZM327 26V27H328V26H327ZM309 15H329V13H309V15ZM310 28V14H308V28H310ZM329 27H309V29H329V27ZM328 14V28H330V14H328ZM311 17H327V15H311V17ZM312 26V16H310V26H312ZM327 25H311V27H327V25ZM326 16V26H328V16H326Z" fill="black" fill-opacity="0.1" mask="url(#path-5-outside-2_236_1972)"/>
<mask id="path-7-outside-3_236_1972" maskUnits="userSpaceOnUse" x="275" y="12" width="17" height="18" fill="black">
<rect fill="white" x="275" y="12" width="17" height="18"/>
<path fill-rule="evenodd" clip-rule="evenodd" d="M281.308 14C281.308 13.4477 281.755 13 282.308 13H284.308C284.86 13 285.308 13.4477 285.308 14V14.6342C285.308 15.058 285.579 15.4284 285.959 15.6159C286.039 15.6555 286.118 15.6967 286.196 15.7397C286.568 15.9442 287.027 15.954 287.375 15.7107L287.895 15.3465C288.347 15.0297 288.971 15.1397 289.287 15.5921L290.435 17.2304C290.751 17.6828 290.641 18.3064 290.189 18.6231L289.669 18.9872C289.322 19.2302 289.174 19.6645 289.238 20.0833C289.284 20.3821 289.308 20.6883 289.308 21C289.308 21.3116 289.284 21.6177 289.238 21.9165C289.174 22.3353 289.322 22.7696 289.669 23.0125L290.189 23.3766C290.641 23.6934 290.751 24.3169 290.435 24.7694L289.287 26.4076C288.971 26.86 288.347 26.97 287.895 26.6532L287.375 26.2891C287.027 26.0458 286.568 26.0556 286.196 26.2601C286.118 26.3031 286.039 26.3444 285.959 26.384C285.579 26.5716 285.308 26.942 285.308 27.3658V28C285.308 28.5523 284.86 29 284.308 29H282.308C281.755 29 281.308 28.5523 281.308 28V27.3658C281.308 26.942 281.037 26.5716 280.657 26.384C280.576 26.3444 280.497 26.3031 280.419 26.2601C280.048 26.0556 279.588 26.0458 279.241 26.2891L278.721 26.6532C278.268 26.97 277.645 26.86 277.328 26.4076L276.181 24.7693C275.864 24.3169 275.974 23.6934 276.427 23.3766L276.946 23.0125C277.293 22.7696 277.441 22.3353 277.377 21.9166C277.331 21.6177 277.308 21.3116 277.308 21C277.308 20.6883 277.332 20.3821 277.377 20.0833C277.442 19.6645 277.294 19.2302 276.947 18.9872L276.427 18.6231C275.974 18.3064 275.864 17.6828 276.181 17.2304L277.328 15.5921C277.645 15.1397 278.268 15.0298 278.721 15.3465L279.241 15.7107C279.588 15.954 280.048 15.9442 280.419 15.7397C280.497 15.6967 280.576 15.6555 280.657 15.6159C281.037 15.4284 281.308 15.058 281.308 14.6342V14ZM283.308 23C284.412 23 285.308 22.1046 285.308 21C285.308 19.8954 284.412 19 283.308 19C282.203 19 281.308 19.8954 281.308 21C281.308 22.1046 282.203 23 283.308 23Z"/>
</mask>
<path fill-rule="evenodd" clip-rule="evenodd" d="M281.308 14C281.308 13.4477 281.755 13 282.308 13H284.308C284.86 13 285.308 13.4477 285.308 14V14.6342C285.308 15.058 285.579 15.4284 285.959 15.6159C286.039 15.6555 286.118 15.6967 286.196 15.7397C286.568 15.9442 287.027 15.954 287.375 15.7107L287.895 15.3465C288.347 15.0297 288.971 15.1397 289.287 15.5921L290.435 17.2304C290.751 17.6828 290.641 18.3064 290.189 18.6231L289.669 18.9872C289.322 19.2302 289.174 19.6645 289.238 20.0833C289.284 20.3821 289.308 20.6883 289.308 21C289.308 21.3116 289.284 21.6177 289.238 21.9165C289.174 22.3353 289.322 22.7696 289.669 23.0125L290.189 23.3766C290.641 23.6934 290.751 24.3169 290.435 24.7694L289.287 26.4076C288.971 26.86 288.347 26.97 287.895 26.6532L287.375 26.2891C287.027 26.0458 286.568 26.0556 286.196 26.2601C286.118 26.3031 286.039 26.3444 285.959 26.384C285.579 26.5716 285.308 26.942 285.308 27.3658V28C285.308 28.5523 284.86 29 284.308 29H282.308C281.755 29 281.308 28.5523 281.308 28V27.3658C281.308 26.942 281.037 26.5716 280.657 26.384C280.576 26.3444 280.497 26.3031 280.419 26.2601C280.048 26.0556 279.588 26.0458 279.241 26.2891L278.721 26.6532C278.268 26.97 277.645 26.86 277.328 26.4076L276.181 24.7693C275.864 24.3169 275.974 23.6934 276.427 23.3766L276.946 23.0125C277.293 22.7696 277.441 22.3353 277.377 21.9166C277.331 21.6177 277.308 21.3116 277.308 21C277.308 20.6883 277.332 20.3821 277.377 20.0833C277.442 19.6645 277.294 19.2302 276.947 18.9872L276.427 18.6231C275.974 18.3064 275.864 17.6828 276.181 17.2304L277.328 15.5921C277.645 15.1397 278.268 15.0298 278.721 15.3465L279.241 15.7107C279.588 15.954 280.048 15.9442 280.419 15.7397C280.497 15.6967 280.576 15.6555 280.657 15.6159C281.037 15.4284 281.308 15.058 281.308 14.6342V14ZM283.308 23C284.412 23 285.308 22.1046 285.308 21C285.308 19.8954 284.412 19 283.308 19C282.203 19 281.308 19.8954 281.308 21C281.308 22.1046 282.203 23 283.308 23Z" fill="#EAEAEA"/>
<path d="M276.427 18.6231L277 17.804L276.427 18.6231ZM276.181 17.2304L275.362 16.6568L276.181 17.2304ZM277.377 20.0833L276.389 19.9317L277.377 20.0833ZM276.947 18.9872L276.373 19.8063L276.947 18.9872ZM277.377 21.9166L276.389 22.0681L277.377 21.9166ZM276.181 24.7693L277 24.1958L276.181 24.7693ZM278.721 26.6532L279.294 27.4723L278.721 26.6532ZM277.328 26.4076L276.509 26.9812L277.328 26.4076ZM280.419 26.2601L280.901 25.3841L280.419 26.2601ZM285.959 26.384L285.516 25.4873L285.959 26.384ZM289.287 26.4076L288.468 25.8341L289.287 26.4076ZM287.895 26.6532L288.468 25.8341L287.895 26.6532ZM290.435 24.7694L289.615 24.1958L290.435 24.7694ZM289.238 21.9165L290.227 22.068L289.238 21.9165ZM289.669 23.0125L290.243 22.1934L289.669 23.0125ZM290.435 17.2304L291.254 16.6568L290.435 17.2304ZM289.287 15.5921L288.468 16.1657L289.287 15.5921ZM286.196 15.7397L285.714 16.6158L286.196 15.7397ZM287.375 15.7107L286.801 14.8916L287.375 15.7107ZM285.959 15.6159L285.516 16.5127L285.959 15.6159ZM287.375 26.2891L287.948 25.4699L287.375 26.2891ZM286.196 26.2601L285.714 25.3841L286.196 26.2601ZM284.308 12H282.308V14H284.308V12ZM286.308 14.6342V14H284.308V14.6342H286.308ZM286.678 14.8636C286.587 14.8135 286.495 14.7653 286.401 14.7191L285.516 16.5127C285.583 16.5456 285.649 16.58 285.714 16.6158L286.678 14.8636ZM287.321 14.5274L286.801 14.8916L287.948 16.5299L288.468 16.1657L287.321 14.5274ZM291.254 16.6568L290.107 15.0185L288.468 16.1657L289.615 17.804L291.254 16.6568ZM290.243 19.8063L290.763 19.4423L289.615 17.804L289.095 18.168L290.243 19.8063ZM290.308 21C290.308 20.6374 290.28 20.2806 290.227 19.9318L288.25 20.2348C288.288 20.4836 288.308 20.7391 288.308 21H290.308ZM290.227 22.068C290.28 21.7192 290.308 21.3625 290.308 21H288.308C288.308 21.2607 288.288 21.5162 288.25 21.7651L290.227 22.068ZM290.763 22.5575L290.243 22.1934L289.095 23.8317L289.615 24.1958L290.763 22.5575ZM290.107 26.9812L291.254 25.3429L289.615 24.1958L288.468 25.8341L290.107 26.9812ZM286.801 27.1082L287.321 27.4723L288.468 25.8341L287.948 25.4699L286.801 27.1082ZM286.401 27.2808C286.495 27.2346 286.587 27.1863 286.679 27.1362L285.714 25.3841C285.649 25.4199 285.583 25.4543 285.516 25.4873L286.401 27.2808ZM286.308 28V27.3658H284.308V28H286.308ZM282.308 30H284.308V28H282.308V30ZM280.308 27.3658V28H282.308V27.3658H280.308ZM279.937 27.1362C280.028 27.1864 280.12 27.2346 280.214 27.2808L281.099 25.4873C281.032 25.4543 280.966 25.4199 280.901 25.3841L279.937 27.1362ZM279.294 27.4723L279.814 27.1082L278.667 25.47L278.147 25.834L279.294 27.4723ZM275.362 25.3429L276.509 26.9812L278.147 25.834L277 24.1958L275.362 25.3429ZM276.373 22.1934L275.853 22.5575L277 24.1958L277.52 23.8317L276.373 22.1934ZM276.308 21C276.308 21.3625 276.335 21.7193 276.389 22.0681L278.366 21.7651C278.328 21.5162 278.308 21.2607 278.308 21H276.308ZM276.389 19.9317C276.335 20.2805 276.308 20.6374 276.308 21H278.308C278.308 20.7392 278.328 20.4837 278.366 20.2348L276.389 19.9317ZM275.853 19.4423L276.373 19.8063L277.52 18.168L277 17.804L275.853 19.4423ZM276.509 15.0185L275.362 16.6568L277 17.804L278.147 16.1657L276.509 15.0185ZM279.815 14.8916L279.294 14.5274L278.147 16.1657L278.667 16.5298L279.815 14.8916ZM280.214 14.7191C280.121 14.7653 280.028 14.8134 279.937 14.8636L280.901 16.6158C280.966 16.58 281.032 16.5456 281.099 16.5127L280.214 14.7191ZM280.308 14V14.6342H282.308V14H280.308ZM284.308 21C284.308 21.5523 283.86 22 283.308 22V24C284.965 24 286.308 22.6569 286.308 21H284.308ZM283.308 20C283.86 20 284.308 20.4477 284.308 21H286.308C286.308 19.3431 284.965 18 283.308 18V20ZM282.308 21C282.308 20.4477 282.755 20 283.308 20V18C281.651 18 280.308 19.3431 280.308 21H282.308ZM283.308 22C282.755 22 282.308 21.5523 282.308 21H280.308C280.308 22.6569 281.651 24 283.308 24V22ZM281.099 16.5127C281.759 16.1872 282.308 15.5029 282.308 14.6342H280.308C280.308 14.6278 280.311 14.6324 280.299 14.6502C280.285 14.6705 280.257 14.6981 280.214 14.7191L281.099 16.5127ZM277 17.804V17.804L275.362 16.6568C274.728 17.5616 274.948 18.8087 275.853 19.4423L277 17.804ZM278.366 20.2348C278.477 19.5078 278.231 18.6661 277.52 18.168L276.373 19.8063C276.368 19.8027 276.373 19.803 276.381 19.8231C276.389 19.846 276.396 19.8846 276.389 19.9317L278.366 20.2348ZM277.52 23.8317C278.231 23.3337 278.477 22.492 278.366 21.7651L276.389 22.0681C276.396 22.1151 276.389 22.1537 276.381 22.1767C276.373 22.1968 276.368 22.197 276.373 22.1934L277.52 23.8317ZM277 24.1958H277L275.853 22.5575C274.948 23.191 274.728 24.4381 275.362 25.3429L277 24.1958ZM278.147 25.834H278.147L276.509 26.9812C277.142 27.886 278.39 28.1059 279.294 27.4723L278.147 25.834ZM280.901 25.3841C280.256 25.0287 279.379 24.9713 278.667 25.47L279.814 27.1082C279.809 27.1118 279.811 27.1069 279.833 27.1066C279.857 27.1063 279.895 27.1133 279.937 27.1362L280.901 25.3841ZM282.308 27.3658C282.308 26.4971 281.759 25.8128 281.099 25.4873L280.214 27.2808C280.257 27.3019 280.285 27.3295 280.299 27.3498C280.311 27.3676 280.308 27.3722 280.308 27.3658H282.308ZM282.308 28H280.308C280.308 29.1046 281.203 30 282.308 30V28ZM284.308 28V30C285.412 30 286.308 29.1046 286.308 28H284.308ZM285.516 25.4873C284.857 25.8128 284.308 26.4971 284.308 27.3658H286.308C286.308 27.3722 286.305 27.3676 286.317 27.3498C286.331 27.3295 286.359 27.3019 286.401 27.2808L285.516 25.4873ZM288.468 25.8341L287.321 27.4723C288.226 28.1059 289.473 27.886 290.107 26.9812L288.468 25.8341ZM289.615 24.1958V24.1958L291.254 25.3429C291.887 24.4381 291.667 23.191 290.763 22.5575L289.615 24.1958ZM288.25 21.7651C288.138 22.492 288.384 23.3337 289.095 23.8317L290.243 22.1934C290.248 22.197 290.242 22.1967 290.235 22.1767C290.226 22.1537 290.219 22.1151 290.227 22.068L288.25 21.7651ZM289.095 18.168C288.384 18.6661 288.138 19.5078 288.25 20.2348L290.227 19.9318C290.219 19.8847 290.226 19.846 290.235 19.8231C290.242 19.803 290.248 19.8027 290.243 19.8063L289.095 18.168ZM289.615 17.804V17.804L290.763 19.4423C291.667 18.8087 291.887 17.5616 291.254 16.6568L289.615 17.804ZM288.468 16.1657V16.1657L290.107 15.0185C289.473 14.1137 288.226 13.8938 287.321 14.5274L288.468 16.1657ZM285.714 16.6158C286.36 16.971 287.236 17.0285 287.948 16.5299L286.801 14.8916C286.806 14.8879 286.804 14.8929 286.783 14.8932C286.758 14.8935 286.72 14.8865 286.678 14.8636L285.714 16.6158ZM284.308 14.6342C284.308 15.5029 284.857 16.1872 285.516 16.5127L286.401 14.7191C286.359 14.6981 286.331 14.6705 286.317 14.6502C286.305 14.6324 286.308 14.6278 286.308 14.6342H284.308ZM278.667 16.5298C279.379 17.0285 280.256 16.971 280.901 16.6158L279.937 14.8636C279.896 14.8865 279.857 14.8935 279.833 14.8932C279.811 14.8929 279.809 14.8879 279.815 14.8916L278.667 16.5298ZM282.308 12C281.203 12 280.308 12.8954 280.308 14H282.308V12ZM287.948 25.4699C287.236 24.9713 286.36 25.0287 285.714 25.3841L286.679 27.1362C286.72 27.1133 286.759 27.1063 286.783 27.1066C286.804 27.1068 286.806 27.1118 286.801 27.1082L287.948 25.4699ZM278.147 16.1657L278.147 16.1657L279.294 14.5274C278.39 13.8938 277.143 14.1137 276.509 15.0185L278.147 16.1657ZM284.308 14H286.308C286.308 12.8954 285.412 12 284.308 12V14Z" fill="black" fill-opacity="0.1" mask="url(#path-7-outside-3_236_1972)"/>
<rect x="283" y="13" width="13" height="9" rx="1" fill="#EE1A26"/>
<g filter="url(#filter0_d_236_1972)">
<path d="M285 15H286V17H288V15H289V20H288V18H286V20H285V15Z" fill="#F1F2F1"/>
<path d="M290 15H293V16H291V19H293V20H290V15Z" fill="#F1F2F1"/>
<path d="M293 19V16H294V19H293Z" fill="#F1F2F1"/>
</g>
<mask id="path-11-outside-4_236_1972" maskUnits="userSpaceOnUse" x="237" y="13" width="20" height="16" fill="black">
<rect fill="white" x="237" y="13" width="20" height="16"/>
<path fill-rule="evenodd" clip-rule="evenodd" d="M238 16C238 14.8954 238.895 14 240 14H254C255.105 14 256 14.8954 256 16V26C256 27.1046 255.105 28 254 28H240C238.895 28 238 27.1046 238 26V16ZM250 18H252C252.552 18 253 18.4477 253 19C253 19.5523 252.552 20 252 20H251C250.448 20 250 20.4477 250 21C250 21.5523 250.448 22 251 22H252C252.552 22 253 22.4477 253 23C253 23.5523 252.552 24 252 24H250C248.895 24 248 23.1046 248 22V20C248 18.8954 248.895 18 250 18ZM245 18H243C241.895 18 241 18.8954 241 20V22C241 23.1046 241.895 24 243 24H245C245.552 24 246 23.5523 246 23C246 22.4477 245.552 22 245 22H244C243.448 22 243 21.5523 243 21C243 20.4477 243.448 20 244 20H245C245.552 20 246 19.5523 246 19C246 18.4477 245.552 18 245 18Z"/>
</mask>
<path fill-rule="evenodd" clip-rule="evenodd" d="M238 16C238 14.8954 238.895 14 240 14H254C255.105 14 256 14.8954 256 16V26C256 27.1046 255.105 28 254 28H240C238.895 28 238 27.1046 238 26V16ZM250 18H252C252.552 18 253 18.4477 253 19C253 19.5523 252.552 20 252 20H251C250.448 20 250 20.4477 250 21C250 21.5523 250.448 22 251 22H252C252.552 22 253 22.4477 253 23C253 23.5523 252.552 24 252 24H250C248.895 24 248 23.1046 248 22V20C248 18.8954 248.895 18 250 18ZM245 18H243C241.895 18 241 18.8954 241 20V22C241 23.1046 241.895 24 243 24H245C245.552 24 246 23.5523 246 23C246 22.4477 245.552 22 245 22H244C243.448 22 243 21.5523 243 21C243 20.4477 243.448 20 244 20H245C245.552 20 246 19.5523 246 19C246 18.4477 245.552 18 245 18Z" fill="#EAEAEA"/>
<path d="M240 13C238.343 13 237 14.3431 237 16H239C239 15.4477 239.448 15 240 15V13ZM254 13H240V15H254V13ZM257 16C257 14.3431 255.657 13 254 13V15C254.552 15 255 15.4477 255 16H257ZM257 26V16H255V26H257ZM254 29C255.657 29 257 27.6569 257 26H255C255 26.5523 254.552 27 254 27V29ZM240 29H254V27H240V29ZM237 26C237 27.6569 238.343 29 240 29V27C239.448 27 239 26.5523 239 26H237ZM237 16V26H239V16H237ZM252 17H250V19H252V17ZM254 19C254 17.8954 253.105 17 252 17V19H254ZM252 21C253.105 21 254 20.1046 254 19H252V21ZM251 21H252V19H251V21ZM251 21V19C249.895 19 249 19.8954 249 21H251ZM251 21H249C249 22.1046 249.895 23 251 23V21ZM252 21H251V23H252V21ZM254 23C254 21.8954 253.105 21 252 21V23H254ZM252 25C253.105 25 254 24.1046 254 23H252V25ZM250 25H252V23H250V25ZM247 22C247 23.6569 248.343 25 250 25V23C249.448 23 249 22.5523 249 22H247ZM247 20V22H249V20H247ZM250 17C248.343 17 247 18.3431 247 20H249C249 19.4477 249.448 19 250 19V17ZM243 19H245V17H243V19ZM242 20C242 19.4477 242.448 19 243 19V17C241.343 17 240 18.3431 240 20H242ZM242 22V20H240V22H242ZM243 23C242.448 23 242 22.5523 242 22H240C240 23.6569 241.343 25 243 25V23ZM245 23H243V25H245V23ZM245 23V25C246.105 25 247 24.1046 247 23H245ZM245 23H247C247 21.8954 246.105 21 245 21V23ZM244 23H245V21H244V23ZM242 21C242 22.1046 242.895 23 244 23V21H242ZM244 19C242.895 19 242 19.8954 242 21H244V19ZM245 19H244V21H245V19ZM245 19V21C246.105 21 247 20.1046 247 19H245ZM245 19H247C247 17.8954 246.105 17 245 17V19Z" fill="black" fill-opacity="0.1" mask="url(#path-11-outside-4_236_1972)"/>
<path d="M133.511 18.5254L132.717 18.3223L133.028 15.7769H136.069V16.6084H133.854L133.708 17.6938C133.788 17.66 133.906 17.6198 134.063 17.5732C134.224 17.5267 134.402 17.5034 134.596 17.5034C134.956 17.5034 135.263 17.569 135.517 17.7002C135.775 17.8314 135.972 18.0197 136.107 18.2651C136.247 18.5106 136.316 18.8047 136.316 19.1475C136.316 19.4479 136.249 19.7293 136.113 19.9917C135.978 20.2498 135.773 20.4593 135.498 20.6201C135.222 20.7767 134.873 20.855 134.45 20.855C134.137 20.855 133.841 20.8 133.562 20.6899C133.282 20.5757 133.054 20.4106 132.876 20.1948C132.698 19.979 132.601 19.7188 132.584 19.4141H133.568C133.589 19.6299 133.68 19.7886 133.841 19.8901C134.002 19.9917 134.205 20.0425 134.45 20.0425C134.759 20.0425 134.979 19.9557 135.11 19.7822C135.246 19.6087 135.313 19.3929 135.313 19.1348C135.313 18.8724 135.231 18.6587 135.066 18.4937C134.901 18.3286 134.664 18.2461 134.355 18.2461C134.122 18.2461 133.947 18.2757 133.828 18.335C133.71 18.3942 133.604 18.4577 133.511 18.5254ZM137.748 24.3779C137.748 24.179 137.809 24.0119 137.932 23.8765C138.059 23.7368 138.241 23.667 138.478 23.667C138.715 23.667 138.894 23.7368 139.017 23.8765C139.144 24.0119 139.208 24.179 139.208 24.3779C139.208 24.5726 139.144 24.7376 139.017 24.873C138.894 25.0085 138.715 25.0762 138.478 25.0762C138.241 25.0762 138.059 25.0085 137.932 24.873C137.809 24.7376 137.748 24.5726 137.748 24.3779ZM137.754 18.7729C137.754 18.5741 137.815 18.4069 137.938 18.2715C138.065 18.1318 138.247 18.062 138.484 18.062C138.721 18.062 138.901 18.1318 139.024 18.2715C139.151 18.4069 139.214 18.5741 139.214 18.7729C139.214 18.9676 139.151 19.1326 139.024 19.2681C138.901 19.4035 138.721 19.4712 138.484 19.4712C138.247 19.4712 138.065 19.4035 137.938 19.2681C137.815 19.1326 137.754 18.9676 137.754 18.7729ZM144.435 17.8398V18.7222C144.435 19.2046 144.357 19.6045 144.2 19.9219C144.048 20.235 143.832 20.4699 143.552 20.6265C143.273 20.7788 142.947 20.855 142.575 20.855C142.198 20.855 141.868 20.7788 141.585 20.6265C141.305 20.4699 141.087 20.235 140.931 19.9219C140.774 19.6045 140.696 19.2046 140.696 18.7222V17.8398C140.696 17.3574 140.772 16.9596 140.925 16.6465C141.081 16.3291 141.299 16.0942 141.578 15.9419C141.862 15.7853 142.19 15.707 142.562 15.707C142.939 15.707 143.267 15.7853 143.546 15.9419C143.825 16.0942 144.043 16.3291 144.2 16.6465C144.357 16.9596 144.435 17.3574 144.435 17.8398ZM143.432 18.8047V17.751C143.432 17.4674 143.398 17.2368 143.33 17.0591C143.263 16.8771 143.163 16.7438 143.032 16.6592C142.905 16.5703 142.748 16.5259 142.562 16.5259C142.376 16.5259 142.217 16.5703 142.086 16.6592C141.959 16.7438 141.862 16.8771 141.794 17.0591C141.726 17.2368 141.693 17.4674 141.693 17.751V18.8047C141.693 19.0882 141.726 19.321 141.794 19.5029C141.862 19.6849 141.961 19.8203 142.093 19.9092C142.228 19.998 142.389 20.0425 142.575 20.0425C142.761 20.0425 142.918 19.998 143.045 19.9092C143.172 19.8203 143.267 19.6849 143.33 19.5029C143.398 19.321 143.432 19.0882 143.432 18.8047ZM149.389 15.7769V16.3481L147.167 20.7852H146.114L148.335 16.5957H145.46V15.7769H149.389ZM158.898 17.0718L154.384 24.2954L153.724 23.8765L158.237 16.6528L158.898 17.0718ZM165.886 15.7578V20.7661H164.896V16.9512L163.525 17.313V16.4941L165.772 15.7578H165.886ZM169.158 18.5254L168.365 18.3223L168.676 15.7769H171.716V16.6084H169.501L169.355 17.6938C169.435 17.66 169.554 17.6198 169.71 17.5732C169.871 17.5267 170.049 17.5034 170.244 17.5034C170.603 17.5034 170.91 17.569 171.164 17.7002C171.422 17.8314 171.619 18.0197 171.754 18.2651C171.894 18.5106 171.964 18.8047 171.964 19.1475C171.964 19.4479 171.896 19.7293 171.761 19.9917C171.625 20.2498 171.42 20.4593 171.145 20.6201C170.87 20.7767 170.521 20.855 170.098 20.855C169.784 20.855 169.488 20.8 169.209 20.6899C168.93 20.5757 168.701 20.4106 168.523 20.1948C168.346 19.979 168.248 19.7188 168.231 19.4141H169.215C169.236 19.6299 169.327 19.7886 169.488 19.8901C169.649 19.9917 169.852 20.0425 170.098 20.0425C170.407 20.0425 170.627 19.9557 170.758 19.7822C170.893 19.6087 170.961 19.3929 170.961 19.1348C170.961 18.8724 170.878 18.6587 170.713 18.4937C170.548 18.3286 170.311 18.2461 170.002 18.2461C169.77 18.2461 169.594 18.2757 169.476 18.335C169.357 18.3942 169.251 18.4577 169.158 18.5254ZM173.395 24.3779C173.395 24.179 173.456 24.0119 173.579 23.8765C173.706 23.7368 173.888 23.667 174.125 23.667C174.362 23.667 174.542 23.7368 174.665 23.8765C174.792 24.0119 174.855 24.179 174.855 24.3779C174.855 24.5726 174.792 24.7376 174.665 24.873C174.542 25.0085 174.362 25.0762 174.125 25.0762C173.888 25.0762 173.706 25.0085 173.579 24.873C173.456 24.7376 173.395 24.5726 173.395 24.3779ZM173.401 18.7729C173.401 18.5741 173.463 18.4069 173.586 18.2715C173.712 18.1318 173.894 18.062 174.131 18.062C174.368 18.062 174.548 18.1318 174.671 18.2715C174.798 18.4069 174.861 18.5741 174.861 18.7729C174.861 18.9676 174.798 19.1326 174.671 19.2681C174.548 19.4035 174.368 19.4712 174.131 19.4712C173.894 19.4712 173.712 19.4035 173.586 19.2681C173.463 19.1326 173.401 18.9676 173.401 18.7729ZM180.165 19.9536V20.7661H176.369V20.0806L178.197 18.3604C178.387 18.1826 178.538 18.0239 178.648 17.8843C178.758 17.7446 178.836 17.6198 178.883 17.5098C178.933 17.3955 178.959 17.2918 178.959 17.1987C178.959 16.9956 178.891 16.8285 178.756 16.6973C178.62 16.5661 178.428 16.5005 178.178 16.5005C177.861 16.5005 177.626 16.5809 177.473 16.7417C177.325 16.9025 177.251 17.1035 177.251 17.3447H176.248C176.248 17.04 176.324 16.7629 176.477 16.5132C176.629 16.2635 176.847 16.0646 177.131 15.9165C177.414 15.7642 177.755 15.688 178.153 15.688C178.533 15.688 178.859 15.7493 179.13 15.8721C179.401 15.9948 179.608 16.1683 179.752 16.3926C179.896 16.6126 179.968 16.8771 179.968 17.186C179.968 17.4103 179.917 17.6198 179.816 17.8145C179.718 18.0091 179.579 18.2038 179.397 18.3984C179.215 18.5931 178.999 18.8026 178.749 19.0269L177.638 19.9536H180.165ZM184.992 19.4141C184.992 19.7314 184.909 19.998 184.744 20.2139C184.584 20.4255 184.361 20.5863 184.078 20.6963C183.794 20.8021 183.475 20.855 183.119 20.855C182.764 20.855 182.444 20.8021 182.161 20.6963C181.877 20.5863 181.651 20.4255 181.482 20.2139C181.317 19.998 181.234 19.7314 181.234 19.4141C181.234 19.1263 181.315 18.8787 181.475 18.6714C181.64 18.464 181.865 18.3032 182.148 18.189C182.432 18.0747 182.753 18.0176 183.113 18.0176C183.473 18.0176 183.794 18.0747 184.078 18.189C184.361 18.3032 184.584 18.464 184.744 18.6714C184.909 18.8787 184.992 19.1263 184.992 19.4141ZM184.002 19.3379C184.002 19.1898 183.964 19.0649 183.888 18.9634C183.811 18.8576 183.706 18.7772 183.57 18.7222C183.439 18.6629 183.287 18.6333 183.113 18.6333C182.935 18.6333 182.781 18.6629 182.65 18.7222C182.519 18.7772 182.417 18.8576 182.345 18.9634C182.273 19.0649 182.237 19.1898 182.237 19.3379C182.237 19.4818 182.273 19.6066 182.345 19.7124C182.417 19.8182 182.519 19.9007 182.65 19.96C182.785 20.015 182.942 20.0425 183.119 20.0425C183.293 20.0425 183.445 20.015 183.576 19.96C183.712 19.9007 183.816 19.8182 183.888 19.7124C183.964 19.6066 184.002 19.4818 184.002 19.3379ZM184.871 17.1035C184.871 17.3659 184.795 17.5965 184.643 17.7954C184.495 17.9901 184.29 18.1424 184.027 18.2524C183.765 18.3582 183.462 18.4111 183.119 18.4111C182.777 18.4111 182.472 18.3582 182.205 18.2524C181.943 18.1424 181.736 17.9901 181.583 17.7954C181.435 17.5965 181.361 17.3659 181.361 17.1035C181.361 16.8031 181.435 16.5492 181.583 16.3418C181.736 16.1344 181.943 15.9779 182.205 15.8721C182.472 15.762 182.775 15.707 183.113 15.707C183.452 15.707 183.752 15.762 184.014 15.8721C184.281 15.9779 184.491 16.1344 184.643 16.3418C184.795 16.5492 184.871 16.8031 184.871 17.1035ZM183.868 17.167C183.868 17.0358 183.837 16.9237 183.773 16.8306C183.714 16.7332 183.627 16.6571 183.513 16.6021C183.403 16.547 183.27 16.5195 183.113 16.5195C182.88 16.5195 182.696 16.5767 182.561 16.6909C182.425 16.8052 182.358 16.9639 182.358 17.167C182.358 17.2939 182.387 17.4061 182.447 17.5034C182.51 17.6007 182.599 17.6769 182.713 17.7319C182.827 17.7869 182.963 17.8145 183.119 17.8145C183.352 17.8145 183.534 17.7552 183.665 17.6367C183.801 17.5182 183.868 17.3617 183.868 17.167Z" fill="#EAEAEA"/>
<path d="M133.511 18.5254L133.263 19.4942L133.718 19.6108L134.099 19.3341L133.511 18.5254ZM132.717 18.3223L131.725 18.201L131.618 19.0731L132.469 19.291L132.717 18.3223ZM133.028 15.7769V14.7769H132.143L132.036 15.6556L133.028 15.7769ZM136.069 15.7769H137.069V14.7769H136.069V15.7769ZM136.069 16.6084V17.6084H137.069V16.6084H136.069ZM133.854 16.6084V15.6084H132.979L132.862 16.4751L133.854 16.6084ZM133.708 17.6938L132.716 17.5605L132.483 19.2944L134.096 18.6155L133.708 17.6938ZM134.063 17.5732L133.785 16.6127L133.778 16.6147L134.063 17.5732ZM135.517 17.7002L135.058 18.5886L135.064 18.5917L135.517 17.7002ZM136.107 18.2651L135.231 18.7483L135.238 18.7597L136.107 18.2651ZM136.113 19.9917L136.999 20.4563L137.002 20.4503L136.113 19.9917ZM135.498 20.6201L135.992 21.4892L136.002 21.4834L135.498 20.6201ZM133.562 20.6899L133.183 21.6156L133.195 21.6203L133.562 20.6899ZM132.584 19.4141V18.4141H131.527L131.586 19.4695L132.584 19.4141ZM133.568 19.4141L134.563 19.3165L134.475 18.4141H133.568V19.4141ZM135.11 19.7822L134.322 19.167L134.317 19.173L134.313 19.1791L135.11 19.7822ZM133.759 17.5566L132.965 17.3535L132.469 19.291L133.263 19.4942L133.759 17.5566ZM133.71 18.4436L134.021 15.8981L132.036 15.6556L131.725 18.201L133.71 18.4436ZM133.028 16.7769H136.069V14.7769H133.028V16.7769ZM135.069 15.7769V16.6084H137.069V15.7769H135.069ZM136.069 15.6084H133.854V17.6084H136.069V15.6084ZM132.862 16.4751L132.716 17.5605L134.699 17.8272L134.845 16.7417L132.862 16.4751ZM134.096 18.6155C134.125 18.6031 134.202 18.5752 134.348 18.5318L133.778 16.6147C133.611 16.6644 133.451 16.7169 133.319 16.7722L134.096 18.6155ZM134.341 18.5338C134.398 18.5173 134.481 18.5034 134.596 18.5034V16.5034C134.322 16.5034 134.049 16.5361 133.785 16.6127L134.341 18.5338ZM134.596 18.5034C134.837 18.5034 134.978 18.5473 135.058 18.5886L135.976 16.8118C135.548 16.5907 135.075 16.5034 134.596 16.5034V18.5034ZM135.064 18.5917C135.149 18.6353 135.196 18.6842 135.231 18.7482L136.983 17.7821C136.747 17.3552 136.4 17.0275 135.97 16.8087L135.064 18.5917ZM135.238 18.7597C135.275 18.8252 135.316 18.9411 135.316 19.1475H137.316C137.316 18.6682 137.218 18.1959 136.976 17.7706L135.238 18.7597ZM135.316 19.1475C135.316 19.2913 135.286 19.4151 135.225 19.5331L137.002 20.4503C137.212 20.0436 137.316 19.6046 137.316 19.1475H135.316ZM135.228 19.5271C135.187 19.604 135.122 19.6815 134.993 19.7568L136.002 21.4834C136.424 21.2371 136.768 20.8957 136.999 20.4562L135.228 19.5271ZM135.003 19.7511C134.921 19.7977 134.756 19.855 134.45 19.855V21.855C134.99 21.855 135.524 21.7557 135.992 21.4892L135.003 19.7511ZM134.45 19.855C134.257 19.855 134.086 19.8216 133.928 19.7595L133.195 21.6203C133.596 21.7783 134.017 21.855 134.45 21.855V19.855ZM133.94 19.7644C133.801 19.7076 133.712 19.6373 133.648 19.5591L132.104 20.8305C132.395 21.184 132.763 21.4437 133.183 21.6155L133.94 19.7644ZM133.648 19.5591C133.618 19.5228 133.589 19.4712 133.582 19.3586L131.586 19.4695C131.613 19.9663 131.778 20.4352 132.104 20.8305L133.648 19.5591ZM132.584 20.4141H133.568V18.4141H132.584V20.4141ZM132.573 19.5116C132.619 19.9857 132.846 20.4447 133.307 20.7356L134.375 19.0446C134.427 19.0774 134.481 19.1297 134.52 19.1976C134.556 19.2616 134.562 19.3094 134.563 19.3165L132.573 19.5116ZM133.307 20.7356C133.668 20.9636 134.07 21.0425 134.45 21.0425V19.0425C134.396 19.0425 134.366 19.0368 134.356 19.0343C134.348 19.0321 134.357 19.0332 134.375 19.0446L133.307 20.7356ZM134.45 21.0425C134.933 21.0425 135.517 20.9022 135.908 20.3853L134.313 19.1791C134.338 19.146 134.368 19.1166 134.4 19.0926C134.432 19.069 134.46 19.0549 134.48 19.0471C134.517 19.0327 134.516 19.0425 134.45 19.0425V21.0425ZM135.899 20.3975C136.194 20.019 136.313 19.5757 136.313 19.1348H134.313C134.313 19.1764 134.308 19.1924 134.309 19.1909C134.309 19.1903 134.31 19.1868 134.313 19.1816C134.315 19.1764 134.319 19.1713 134.322 19.167L135.899 20.3975ZM136.313 19.1348C136.313 18.6431 136.15 18.1631 135.773 17.7865L134.359 19.2008C134.353 19.1949 134.345 19.1858 134.337 19.1737C134.329 19.1615 134.323 19.1492 134.319 19.1379C134.31 19.1144 134.313 19.1091 134.313 19.1348H136.313ZM135.773 17.7865C135.366 17.3793 134.84 17.2461 134.355 17.2461V19.2461C134.422 19.2461 134.444 19.2553 134.436 19.2524C134.431 19.2507 134.419 19.2461 134.404 19.2368C134.389 19.2274 134.373 19.2152 134.359 19.2008L135.773 17.7865ZM134.355 17.2461C134.068 17.2461 133.707 17.2777 133.381 17.4405L134.275 19.2294C134.247 19.2436 134.226 19.2506 134.217 19.2533C134.208 19.2562 134.206 19.2559 134.215 19.2544C134.234 19.2512 134.278 19.2461 134.355 19.2461V17.2461ZM133.381 17.4405C133.22 17.5208 133.066 17.6121 132.923 17.7167L134.099 19.3341C134.141 19.3032 134.199 19.2676 134.275 19.2294L133.381 17.4405ZM137.932 23.8765L137.192 23.2038L137.191 23.2049L137.932 23.8765ZM139.017 23.8765L138.266 24.5366L138.277 24.5487L138.288 24.5604L139.017 23.8765ZM139.017 24.873L138.288 24.1891L138.282 24.1953L138.276 24.2015L139.017 24.873ZM137.932 24.873L137.191 25.5446L137.196 25.5508L137.202 25.557L137.932 24.873ZM137.938 18.2715L137.198 17.5988L137.197 17.6L137.938 18.2715ZM139.024 18.2715L138.272 18.9316L138.283 18.9437L138.294 18.9554L139.024 18.2715ZM139.024 19.2681L138.294 18.5841L138.288 18.5903L138.283 18.5965L139.024 19.2681ZM137.938 19.2681L137.197 19.9396L137.203 19.9458L137.209 19.952L137.938 19.2681ZM138.748 24.3779C138.748 24.3824 138.747 24.4091 138.732 24.448C138.718 24.4883 138.695 24.523 138.673 24.548L137.191 23.2049C136.886 23.5412 136.748 23.9546 136.748 24.3779H138.748ZM138.672 24.5491C138.627 24.5988 138.572 24.6338 138.522 24.653C138.477 24.6703 138.456 24.667 138.478 24.667V22.667C138.036 22.667 137.555 22.8047 137.192 23.2038L138.672 24.5491ZM138.478 24.667C138.5 24.667 138.477 24.6704 138.428 24.6516C138.374 24.6306 138.315 24.592 138.266 24.5366L139.768 23.2164C139.406 22.8043 138.918 22.667 138.478 22.667V24.667ZM138.288 24.5604C138.265 24.5366 138.242 24.5015 138.225 24.4584C138.209 24.4165 138.208 24.3862 138.208 24.3779H140.208C140.208 23.9449 140.061 23.5273 139.747 23.1925L138.288 24.5604ZM138.208 24.3779C138.208 24.3649 138.21 24.3318 138.227 24.2887C138.244 24.2448 138.267 24.2108 138.288 24.1891L139.747 25.557C140.057 25.2265 140.208 24.813 140.208 24.3779H138.208ZM138.276 24.2015C138.327 24.1454 138.387 24.1087 138.438 24.0895C138.483 24.0724 138.503 24.0762 138.478 24.0762V26.0762C138.908 26.0762 139.394 25.947 139.758 25.5446L138.276 24.2015ZM138.478 24.0762C138.453 24.0762 138.47 24.0725 138.512 24.0882C138.559 24.1056 138.614 24.1389 138.661 24.1891L137.202 25.557C137.567 25.9464 138.045 26.0762 138.478 26.0762V24.0762ZM138.673 24.2015C138.693 24.2244 138.716 24.258 138.731 24.2992C138.746 24.3394 138.748 24.3688 138.748 24.3779H136.748C136.748 24.8032 136.89 25.2125 137.191 25.5446L138.673 24.2015ZM138.754 18.7729C138.754 18.7774 138.753 18.8041 138.739 18.843C138.724 18.8833 138.702 18.918 138.679 18.943L137.197 17.6C136.892 17.9362 136.754 18.3496 136.754 18.7729H138.754ZM138.678 18.9442C138.633 18.9938 138.578 19.0288 138.528 19.048C138.483 19.0653 138.462 19.062 138.484 19.062V17.062C138.042 17.062 137.561 17.1997 137.198 17.5988L138.678 18.9442ZM138.484 19.062C138.506 19.062 138.483 19.0654 138.435 19.0466C138.381 19.0256 138.321 18.987 138.272 18.9316L139.775 17.6114C139.413 17.1993 138.924 17.062 138.484 17.062V19.062ZM138.294 18.9554C138.272 18.9316 138.248 18.8965 138.232 18.8534C138.216 18.8116 138.214 18.7812 138.214 18.7729H140.214C140.214 18.3399 140.067 17.9223 139.753 17.5875L138.294 18.9554ZM138.214 18.7729C138.214 18.7599 138.216 18.7268 138.233 18.6837C138.25 18.6399 138.274 18.6058 138.294 18.5841L139.753 19.952C140.063 19.6215 140.214 19.208 140.214 18.7729H138.214ZM138.283 18.5965C138.333 18.5404 138.393 18.5037 138.444 18.4845C138.49 18.4674 138.509 18.4712 138.484 18.4712V20.4712C138.914 20.4712 139.4 20.342 139.765 19.9396L138.283 18.5965ZM138.484 18.4712C138.459 18.4712 138.476 18.4675 138.519 18.4832C138.565 18.5007 138.621 18.5339 138.668 18.5841L137.209 19.952C137.574 20.3414 138.052 20.4712 138.484 20.4712V18.4712ZM138.679 18.5965C138.7 18.6194 138.722 18.6531 138.737 18.6942C138.752 18.7344 138.754 18.7638 138.754 18.7729H136.754C136.754 19.1982 136.896 19.6076 137.197 19.9396L138.679 18.5965ZM144.2 19.9219L143.303 19.4794L143.301 19.4844L144.2 19.9219ZM143.552 20.6265L144.031 21.5044L144.041 21.4987L143.552 20.6265ZM141.585 20.6265L141.096 21.4987L141.104 21.5031L141.111 21.5074L141.585 20.6265ZM140.931 19.9219L140.034 20.3643L140.036 20.3691L140.931 19.9219ZM140.925 16.6465L140.028 16.2041L140.025 16.209L140.925 16.6465ZM141.578 15.9419L142.057 16.8198L142.062 16.8173L141.578 15.9419ZM143.546 15.9419L143.057 16.8142L143.067 16.8198L143.546 15.9419ZM144.2 16.6465L143.303 17.0889L143.306 17.0937L144.2 16.6465ZM143.33 17.0591L142.393 17.4078L142.396 17.4151L143.33 17.0591ZM143.032 16.6592L142.459 17.4784L142.474 17.4892L142.49 17.4995L143.032 16.6592ZM142.086 16.6592L142.641 17.4913L142.647 17.4871L142.086 16.6592ZM141.794 17.0591L142.729 17.4151L142.731 17.4078L141.794 17.0591ZM141.794 19.5029L140.857 19.8517L141.794 19.5029ZM142.093 19.9092L141.532 20.7371L141.538 20.7412L141.544 20.7452L142.093 19.9092ZM143.33 19.5029L142.393 19.1542L142.39 19.1638L142.386 19.1736L143.33 19.5029ZM143.435 17.8398V18.7222H145.435V17.8398H143.435ZM143.435 18.7222C143.435 19.104 143.372 19.3403 143.303 19.4795L145.097 20.3643C145.341 19.8687 145.435 19.3052 145.435 18.7222H143.435ZM143.301 19.4844C143.229 19.631 143.149 19.7061 143.063 19.7542L144.041 21.4987C144.514 21.2337 144.866 20.839 145.099 20.3593L143.301 19.4844ZM143.074 19.7486C142.964 19.8081 142.809 19.855 142.575 19.855V21.855C143.086 21.855 143.582 21.7495 144.031 21.5044L143.074 19.7486ZM142.575 19.855C142.335 19.855 142.173 19.8074 142.058 19.7456L141.111 21.5074C141.563 21.7502 142.061 21.855 142.575 21.855V19.855ZM142.074 19.7542C141.985 19.7047 141.901 19.6262 141.825 19.4747L140.036 20.3691C140.274 20.8438 140.625 21.2351 141.096 21.4987L142.074 19.7542ZM141.828 19.4795C141.759 19.3403 141.696 19.104 141.696 18.7222H139.696C139.696 19.3052 139.79 19.8687 140.034 20.3643L141.828 19.4795ZM141.696 18.7222V17.8398H139.696V18.7222H141.696ZM141.696 17.8398C141.696 17.454 141.758 17.2187 141.824 17.084L140.025 16.209C139.786 16.7005 139.696 17.2608 139.696 17.8398H141.696ZM141.821 17.0889C141.897 16.9346 141.979 16.8625 142.057 16.8198L141.1 15.064C140.619 15.326 140.265 15.7236 140.028 16.2041L141.821 17.0889ZM142.062 16.8173C142.176 16.754 142.333 16.707 142.562 16.707V14.707C142.046 14.707 141.547 14.8167 141.095 15.0665L142.062 16.8173ZM142.562 16.707C142.798 16.707 142.952 16.755 143.057 16.8142L144.035 15.0696C143.582 14.8156 143.08 14.707 142.562 14.707V16.707ZM143.067 16.8198C143.146 16.8625 143.227 16.9346 143.303 17.0889L145.097 16.2041C144.86 15.7236 144.505 15.326 144.025 15.064L143.067 16.8198ZM143.306 17.0937C143.372 17.2257 143.435 17.4572 143.435 17.8398H145.435C145.435 17.2576 145.342 16.6936 145.094 16.1993L143.306 17.0937ZM144.432 18.8047V17.751H142.432V18.8047H144.432ZM144.432 17.751C144.432 17.3997 144.392 17.0359 144.265 16.7031L142.396 17.4151C142.404 17.4377 142.432 17.5352 142.432 17.751H144.432ZM144.268 16.7103C144.143 16.3763 143.927 16.0464 143.574 15.8189L142.49 17.4995C142.449 17.473 142.42 17.4433 142.403 17.4206C142.388 17.3995 142.387 17.3914 142.393 17.4078L144.268 16.7103ZM143.605 15.8399C143.279 15.6114 142.911 15.5259 142.562 15.5259V17.5259C142.576 17.5259 142.569 17.5275 142.546 17.5212C142.523 17.5145 142.491 17.5012 142.459 17.4784L143.605 15.8399ZM142.562 15.5259C142.212 15.5259 141.849 15.6117 141.525 15.8313L142.647 17.4871C142.62 17.5055 142.593 17.5165 142.573 17.5222C142.554 17.5275 142.549 17.5259 142.562 17.5259V15.5259ZM141.531 15.8271C141.187 16.0569 140.978 16.3851 140.857 16.7103L142.731 17.4078C142.739 17.388 142.739 17.3933 142.726 17.4123C142.711 17.4329 142.683 17.4631 142.641 17.4912L141.531 15.8271ZM140.86 16.7031C140.733 17.0359 140.693 17.3997 140.693 17.751H142.693C142.693 17.5352 142.72 17.4377 142.729 17.4151L140.86 16.7031ZM140.693 17.751V18.8047H142.693V17.751H140.693ZM140.693 18.8047C140.693 19.1574 140.733 19.5194 140.857 19.8517L142.731 19.1542C142.72 19.1226 142.693 19.019 142.693 18.8047H140.693ZM140.857 19.8517C140.981 20.184 141.193 20.5074 141.532 20.7371L142.653 19.0813C142.688 19.1047 142.712 19.1303 142.726 19.1491C142.738 19.1665 142.738 19.1716 142.731 19.1542L140.857 19.8517ZM141.544 20.7452C141.866 20.9564 142.224 21.0425 142.575 21.0425V19.0425C142.562 19.0425 142.565 19.0409 142.581 19.0453C142.598 19.0499 142.619 19.0588 142.641 19.0731L141.544 20.7452ZM142.575 21.0425C142.924 21.0425 143.292 20.957 143.618 20.7284L142.471 19.0899C142.504 19.0672 142.535 19.0539 142.559 19.0471C142.581 19.0408 142.589 19.0425 142.575 19.0425V21.0425ZM143.618 20.7284C143.955 20.4926 144.159 20.1636 144.275 19.8323L142.386 19.1736C142.38 19.1911 142.38 19.185 142.393 19.1658C142.408 19.1451 142.433 19.1165 142.471 19.0899L143.618 20.7284ZM144.268 19.8517C144.391 19.5194 144.432 19.1574 144.432 18.8047H142.432C142.432 19.019 142.405 19.1226 142.393 19.1542L144.268 19.8517ZM149.389 15.7769H150.389V14.7769H149.389V15.7769ZM149.389 16.3481L150.283 16.7959L150.389 16.5845V16.3481H149.389ZM147.167 20.7852V21.7852H147.785L148.062 21.2329L147.167 20.7852ZM146.114 20.7852L145.23 20.3167L144.451 21.7852H146.114V20.7852ZM148.335 16.5957L149.219 17.0642L149.998 15.5957H148.335V16.5957ZM145.46 16.5957H144.46V17.5957H145.46V16.5957ZM145.46 15.7769V14.7769H144.46V15.7769H145.46ZM148.389 15.7769V16.3481H150.389V15.7769H148.389ZM148.495 15.9004L146.273 20.3374L148.062 21.2329L150.283 16.7959L148.495 15.9004ZM147.167 19.7852H146.114V21.7852H147.167V19.7852ZM146.997 21.2537L149.219 17.0642L147.452 16.1272L145.23 20.3167L146.997 21.2537ZM148.335 15.5957H145.46V17.5957H148.335V15.5957ZM146.46 16.5957V15.7769H144.46V16.5957H146.46ZM145.46 16.7769H149.389V14.7769H145.46V16.7769ZM158.898 17.0718L159.746 17.6016L160.272 16.7595L159.433 16.2274L158.898 17.0718ZM154.384 24.2954L153.849 25.1397L154.699 25.6794L155.232 24.8253L154.384 24.2954ZM153.724 23.8765L152.876 23.3466L152.35 24.1887L153.188 24.7208L153.724 23.8765ZM158.237 16.6528L158.773 15.8085L157.923 15.2689L157.389 16.123L158.237 16.6528ZM158.049 16.5419L153.536 23.7655L155.232 24.8253L159.746 17.6016L158.049 16.5419ZM154.92 23.4511L154.26 23.0321L153.188 24.7208L153.849 25.1397L154.92 23.4511ZM154.572 24.4063L159.085 17.1827L157.389 16.123L152.876 23.3466L154.572 24.4063ZM157.702 17.4972L158.362 17.9161L159.433 16.2274L158.773 15.8085L157.702 17.4972ZM165.886 15.7578H166.886V14.7578H165.886V15.7578ZM165.886 20.7661V21.7661H166.886V20.7661H165.886ZM164.896 20.7661H163.896V21.7661H164.896V20.7661ZM164.896 16.9512H165.896V15.6531L164.641 15.9843L164.896 16.9512ZM163.525 17.313H162.525V18.6111L163.78 18.2799L163.525 17.313ZM163.525 16.4941L163.213 15.5439L162.525 15.7695V16.4941H163.525ZM165.772 15.7578V14.7578H165.612L165.46 14.8075L165.772 15.7578ZM164.886 15.7578V20.7661H166.886V15.7578H164.886ZM165.886 19.7661H164.896V21.7661H165.886V19.7661ZM165.896 20.7661V16.9512H163.896V20.7661H165.896ZM164.641 15.9843L163.27 16.3461L163.78 18.2799L165.151 17.9181L164.641 15.9843ZM164.525 17.313V16.4941H162.525V17.313H164.525ZM163.836 17.4444L166.083 16.7081L165.46 14.8075L163.213 15.5439L163.836 17.4444ZM165.772 16.7578H165.886V14.7578H165.772V16.7578ZM169.158 18.5254L168.91 19.4942L169.366 19.6108L169.746 19.3341L169.158 18.5254ZM168.365 18.3223L167.372 18.201L167.266 19.0731L168.117 19.291L168.365 18.3223ZM168.676 15.7769V14.7769H167.79L167.683 15.6556L168.676 15.7769ZM171.716 15.7769H172.716V14.7769H171.716V15.7769ZM171.716 16.6084V17.6084H172.716V16.6084H171.716ZM169.501 16.6084V15.6084H168.626L168.51 16.4751L169.501 16.6084ZM169.355 17.6938L168.364 17.5605L168.131 19.2944L169.743 18.6155L169.355 17.6938ZM169.71 17.5732L169.432 16.6127L169.425 16.6147L169.71 17.5732ZM171.164 17.7002L170.705 18.5886L170.711 18.5917L171.164 17.7002ZM171.754 18.2651L170.879 18.7483L170.885 18.7597L171.754 18.2651ZM171.761 19.9917L172.646 20.4563L172.649 20.4503L171.761 19.9917ZM171.145 20.6201L171.64 21.4892L171.65 21.4834L171.145 20.6201ZM169.209 20.6899L168.83 21.6156L168.842 21.6203L169.209 20.6899ZM168.231 19.4141V18.4141H167.174L167.233 19.4695L168.231 19.4141ZM169.215 19.4141L170.211 19.3165L170.122 18.4141H169.215V19.4141ZM170.758 19.7822L169.969 19.167L169.965 19.173L169.96 19.1791L170.758 19.7822ZM169.406 17.5566L168.613 17.3535L168.117 19.291L168.91 19.4942L169.406 17.5566ZM169.357 18.4436L169.668 15.8981L167.683 15.6556L167.372 18.201L169.357 18.4436ZM168.676 16.7769H171.716V14.7769H168.676V16.7769ZM170.716 15.7769V16.6084H172.716V15.7769H170.716ZM171.716 15.6084H169.501V17.6084H171.716V15.6084ZM168.51 16.4751L168.364 17.5605L170.346 17.8272L170.492 16.7417L168.51 16.4751ZM169.743 18.6155C169.772 18.6031 169.849 18.5752 169.995 18.5318L169.425 16.6147C169.258 16.6644 169.098 16.7169 168.967 16.7722L169.743 18.6155ZM169.988 18.5338C170.046 18.5173 170.128 18.5034 170.244 18.5034V16.5034C169.97 16.5034 169.697 16.5361 169.432 16.6127L169.988 18.5338ZM170.244 18.5034C170.484 18.5034 170.625 18.5473 170.705 18.5886L171.623 16.8118C171.195 16.5907 170.723 16.5034 170.244 16.5034V18.5034ZM170.711 18.5917C170.797 18.6353 170.843 18.6842 170.879 18.7482L172.63 17.7821C172.394 17.3552 172.048 17.0275 171.617 16.8087L170.711 18.5917ZM170.885 18.7597C170.923 18.8252 170.964 18.9411 170.964 19.1475H172.964C172.964 18.6682 172.866 18.1959 172.624 17.7706L170.885 18.7597ZM170.964 19.1475C170.964 19.2913 170.933 19.4151 170.872 19.5331L172.649 20.4503C172.859 20.0436 172.964 19.6046 172.964 19.1475H170.964ZM170.875 19.5271C170.835 19.604 170.769 19.6815 170.64 19.7568L171.65 21.4834C172.071 21.2371 172.416 20.8957 172.646 20.4562L170.875 19.5271ZM170.65 19.7511C170.568 19.7977 170.404 19.855 170.098 19.855V21.855C170.638 21.855 171.171 21.7557 171.64 21.4892L170.65 19.7511ZM170.098 19.855C169.904 19.855 169.733 19.8216 169.575 19.7595L168.842 21.6203C169.243 21.7783 169.665 21.855 170.098 21.855V19.855ZM169.588 19.7644C169.449 19.7076 169.36 19.6373 169.295 19.5591L167.751 20.8305C168.043 21.184 168.41 21.4437 168.83 21.6155L169.588 19.7644ZM169.295 19.5591C169.265 19.5228 169.236 19.4712 169.23 19.3586L167.233 19.4695C167.261 19.9663 167.426 20.4352 167.751 20.8305L169.295 19.5591ZM168.231 20.4141H169.215V18.4141H168.231V20.4141ZM168.22 19.5116C168.267 19.9857 168.494 20.4447 168.954 20.7356L170.022 19.0446C170.074 19.0774 170.128 19.1297 170.167 19.1976C170.204 19.2616 170.21 19.3094 170.211 19.3165L168.22 19.5116ZM168.954 20.7356C169.315 20.9636 169.717 21.0425 170.098 21.0425V19.0425C170.043 19.0425 170.014 19.0368 170.004 19.0343C169.995 19.0321 170.004 19.0332 170.022 19.0446L168.954 20.7356ZM170.098 21.0425C170.581 21.0425 171.165 20.9022 171.555 20.3853L169.96 19.1791C169.985 19.146 170.015 19.1166 170.047 19.0926C170.079 19.069 170.108 19.0549 170.128 19.0471C170.164 19.0327 170.163 19.0425 170.098 19.0425V21.0425ZM171.546 20.3975C171.841 20.019 171.961 19.5757 171.961 19.1348H169.961C169.961 19.1764 169.955 19.1924 169.956 19.1909C169.956 19.1903 169.957 19.1868 169.96 19.1816C169.963 19.1764 169.966 19.1713 169.969 19.167L171.546 20.3975ZM171.961 19.1348C171.961 18.6431 171.797 18.1631 171.42 17.7865L170.006 19.2008C170 19.1949 169.993 19.1858 169.985 19.1737C169.977 19.1615 169.97 19.1492 169.966 19.1379C169.957 19.1144 169.961 19.1091 169.961 19.1348H171.961ZM171.42 17.7865C171.013 17.3793 170.488 17.2461 170.002 17.2461V19.2461C170.07 19.2461 170.091 19.2553 170.083 19.2524C170.078 19.2507 170.067 19.2461 170.052 19.2368C170.036 19.2274 170.021 19.2152 170.006 19.2008L171.42 17.7865ZM170.002 17.2461C169.715 17.2461 169.354 17.2777 169.028 17.4405L169.923 19.2294C169.894 19.2436 169.874 19.2506 169.864 19.2533C169.855 19.2562 169.854 19.2559 169.862 19.2544C169.882 19.2512 169.926 19.2461 170.002 19.2461V17.2461ZM169.028 17.4405C168.868 17.5208 168.714 17.6121 168.57 17.7167L169.746 19.3341C169.789 19.3032 169.846 19.2676 169.923 19.2294L169.028 17.4405ZM173.579 23.8765L172.839 23.2038L172.838 23.2049L173.579 23.8765ZM174.665 23.8765L173.913 24.5366L173.924 24.5487L173.935 24.5604L174.665 23.8765ZM174.665 24.873L173.935 24.1891L173.929 24.1953L173.924 24.2015L174.665 24.873ZM173.579 24.873L172.838 25.5446L172.844 25.5508L172.85 25.557L173.579 24.873ZM173.586 18.2715L172.846 17.5988L172.845 17.6L173.586 18.2715ZM174.671 18.2715L173.92 18.9316L173.93 18.9437L173.941 18.9554L174.671 18.2715ZM174.671 19.2681L173.941 18.5841L173.936 18.5903L173.93 18.5965L174.671 19.2681ZM173.586 19.2681L172.845 19.9396L172.85 19.9458L172.856 19.952L173.586 19.2681ZM174.395 24.3779C174.395 24.3824 174.394 24.4091 174.38 24.448C174.365 24.4883 174.343 24.523 174.32 24.548L172.838 23.2049C172.533 23.5412 172.395 23.9546 172.395 24.3779H174.395ZM174.319 24.5491C174.274 24.5988 174.219 24.6338 174.169 24.653C174.124 24.6703 174.103 24.667 174.125 24.667V22.667C173.683 22.667 173.202 22.8047 172.839 23.2038L174.319 24.5491ZM174.125 24.667C174.147 24.667 174.124 24.6704 174.076 24.6516C174.022 24.6306 173.962 24.592 173.913 24.5366L175.416 23.2164C175.054 22.8043 174.565 22.667 174.125 22.667V24.667ZM173.935 24.5604C173.913 24.5366 173.889 24.5015 173.873 24.4584C173.857 24.4165 173.855 24.3862 173.855 24.3779H175.855C175.855 23.9449 175.708 23.5273 175.394 23.1925L173.935 24.5604ZM173.855 24.3779C173.855 24.3649 173.858 24.3318 173.874 24.2887C173.891 24.2448 173.915 24.2108 173.935 24.1891L175.394 25.557C175.704 25.2265 175.855 24.813 175.855 24.3779H173.855ZM173.924 24.2015C173.975 24.1454 174.034 24.1087 174.085 24.0895C174.131 24.0724 174.15 24.0762 174.125 24.0762V26.0762C174.556 26.0762 175.041 25.947 175.406 25.5446L173.924 24.2015ZM174.125 24.0762C174.1 24.0762 174.117 24.0725 174.16 24.0882C174.207 24.1056 174.262 24.1389 174.309 24.1891L172.85 25.557C173.215 25.9464 173.693 26.0762 174.125 26.0762V24.0762ZM174.32 24.2015C174.341 24.2244 174.363 24.258 174.378 24.2992C174.393 24.3394 174.395 24.3688 174.395 24.3779H172.395C172.395 24.8032 172.537 25.2125 172.838 25.5446L174.32 24.2015ZM174.401 18.7729C174.401 18.7774 174.401 18.8041 174.386 18.843C174.371 18.8833 174.349 18.918 174.327 18.943L172.845 17.6C172.54 17.9362 172.401 18.3496 172.401 18.7729H174.401ZM174.325 18.9442C174.28 18.9938 174.225 19.0288 174.175 19.048C174.13 19.0653 174.11 19.062 174.131 19.062V17.062C173.69 17.062 173.208 17.1997 172.846 17.5988L174.325 18.9442ZM174.131 19.062C174.153 19.062 174.131 19.0654 174.082 19.0466C174.028 19.0256 173.969 18.987 173.92 18.9316L175.422 17.6114C175.06 17.1993 174.571 17.062 174.131 17.062V19.062ZM173.941 18.9554C173.919 18.9316 173.895 18.8965 173.879 18.8534C173.863 18.8116 173.861 18.7812 173.861 18.7729H175.861C175.861 18.3399 175.714 17.9223 175.401 17.5875L173.941 18.9554ZM173.861 18.7729C173.861 18.7599 173.864 18.7268 173.88 18.6837C173.897 18.6399 173.921 18.6058 173.941 18.5841L175.401 19.952C175.71 19.6215 175.861 19.208 175.861 18.7729H173.861ZM173.93 18.5965C173.981 18.5404 174.041 18.5037 174.092 18.4845C174.137 18.4674 174.157 18.4712 174.131 18.4712V20.4712C174.562 20.4712 175.047 20.342 175.412 19.9396L173.93 18.5965ZM174.131 18.4712C174.107 18.4712 174.124 18.4675 174.166 18.4832C174.213 18.5007 174.268 18.5339 174.315 18.5841L172.856 19.952C173.221 20.3414 173.699 20.4712 174.131 20.4712V18.4712ZM174.327 18.5965C174.347 18.6194 174.369 18.6531 174.385 18.6942C174.4 18.7344 174.401 18.7638 174.401 18.7729H172.401C172.401 19.1982 172.544 19.6076 172.845 19.9396L174.327 18.5965ZM180.165 19.9536H181.165V18.9536H180.165V19.9536ZM180.165 20.7661V21.7661H181.165V20.7661H180.165ZM176.369 20.7661H175.369V21.7661H176.369V20.7661ZM176.369 20.0806L175.684 19.3523L175.369 19.6484V20.0806H176.369ZM178.197 18.3604L177.515 17.6293L177.512 17.6321L178.197 18.3604ZM178.883 17.5098L177.969 17.1036L177.965 17.1118L177.962 17.1201L178.883 17.5098ZM177.473 16.7417L176.747 16.0539L176.738 16.0642L177.473 16.7417ZM177.251 17.3447V18.3447H178.251V17.3447H177.251ZM176.248 17.3447H175.248V18.3447H176.248V17.3447ZM177.131 15.9165L177.594 16.8029L177.604 16.7974L177.131 15.9165ZM179.752 16.3926L178.91 16.9326L178.915 16.9398L179.752 16.3926ZM179.816 17.8145L178.929 17.3519L178.925 17.3595L178.921 17.3672L179.816 17.8145ZM179.397 18.3984L180.127 19.0813L179.397 18.3984ZM178.749 19.0269L179.39 19.7947L179.404 19.783L179.417 19.7708L178.749 19.0269ZM177.638 19.9536L176.998 19.1858L174.879 20.9536H177.638V19.9536ZM179.165 19.9536V20.7661H181.165V19.9536H179.165ZM180.165 19.7661H176.369V21.7661H180.165V19.7661ZM177.369 20.7661V20.0806H175.369V20.7661H177.369ZM177.054 20.8088L178.882 19.0886L177.512 17.6321L175.684 19.3523L177.054 20.8088ZM178.879 19.0914C179.091 18.8934 179.281 18.6965 179.433 18.5031L177.862 17.2654C177.794 17.3514 177.683 17.4719 177.515 17.6293L178.879 19.0914ZM179.433 18.5031C179.574 18.324 179.71 18.121 179.803 17.8994L177.962 17.1201C177.963 17.1163 177.959 17.1274 177.942 17.1546C177.925 17.1814 177.899 17.2181 177.862 17.2654L179.433 18.5031ZM179.796 17.9159C179.885 17.7153 179.959 17.471 179.959 17.1987H177.959C177.959 17.1544 177.965 17.1233 177.968 17.1084C177.972 17.0938 177.974 17.0918 177.969 17.1036L179.796 17.9159ZM179.959 17.1987C179.959 16.7481 179.797 16.3142 179.451 15.979L178.06 17.4155C178.032 17.3887 178.002 17.3479 177.981 17.2965C177.961 17.2466 177.959 17.2097 177.959 17.1987H179.959ZM179.451 15.979C179.075 15.6146 178.601 15.5005 178.178 15.5005V17.5005C178.217 17.5005 178.215 17.5058 178.187 17.4963C178.155 17.4853 178.106 17.4606 178.06 17.4155L179.451 15.979ZM178.178 15.5005C177.707 15.5005 177.158 15.6206 176.747 16.054L178.199 17.4294C178.177 17.4529 178.154 17.4714 178.132 17.4849C178.11 17.4983 178.094 17.5046 178.088 17.5069C178.076 17.5107 178.1 17.5005 178.178 17.5005V15.5005ZM176.738 16.0642C176.401 16.4293 176.251 16.8806 176.251 17.3447H178.251C178.251 17.3274 178.254 17.3355 178.245 17.3588C178.241 17.3698 178.235 17.3816 178.228 17.3931C178.221 17.4045 178.214 17.4133 178.209 17.4192L176.738 16.0642ZM177.251 16.3447H176.248V18.3447H177.251V16.3447ZM177.248 17.3447C177.248 17.2158 177.278 17.1201 177.33 17.034L175.623 15.9923C175.371 16.4056 175.248 16.8643 175.248 17.3447H177.248ZM177.33 17.034C177.379 16.9538 177.455 16.875 177.594 16.8029L176.668 15.0302C176.239 15.2542 175.879 15.5733 175.623 15.9923L177.33 17.034ZM177.604 16.7974C177.711 16.7396 177.882 16.688 178.153 16.688V14.688C177.628 14.688 177.117 14.7887 176.657 15.0356L177.604 16.7974ZM178.153 16.688C178.43 16.688 178.607 16.733 178.717 16.7829L179.543 14.9612C179.111 14.7657 178.637 14.688 178.153 14.688V16.688ZM178.717 16.7829C178.833 16.8355 178.883 16.8891 178.91 16.9325L180.594 15.8526C180.334 15.4475 179.968 15.154 179.543 14.9612L178.717 16.7829ZM178.915 16.9398C178.935 16.9704 178.968 17.0368 178.968 17.186H180.968C180.968 16.7174 180.857 16.2549 180.589 15.8453L178.915 16.9398ZM178.968 17.186C178.968 17.2528 178.954 17.3032 178.929 17.3519L180.702 18.277C180.88 17.9364 180.968 17.5678 180.968 17.186H178.968ZM178.921 17.3672C178.875 17.4591 178.797 17.576 178.666 17.7156L180.127 19.0813C180.361 18.8315 180.561 18.5591 180.71 18.2617L178.921 17.3672ZM178.666 17.7156C178.508 17.8844 178.314 18.0734 178.081 18.2829L179.417 19.7708C179.684 19.5318 179.921 19.3018 180.127 19.0813L178.666 17.7156ZM178.109 18.259L176.998 19.1858L178.279 20.7215L179.39 19.7947L178.109 18.259ZM177.638 20.9536H180.165V18.9536H177.638V20.9536ZM184.744 20.2139L183.95 19.6064L183.948 19.6088L184.744 20.2139ZM184.078 20.6963L184.428 21.6333L184.44 21.6286L184.078 20.6963ZM182.161 20.6963L181.799 21.6286L181.811 21.6332L182.161 20.6963ZM181.482 20.2139L180.687 20.8213L180.694 20.83L180.701 20.8386L181.482 20.2139ZM181.475 18.6714L180.693 18.0486L180.685 18.0586L181.475 18.6714ZM182.148 18.189L181.774 17.2614L182.148 18.189ZM184.744 18.6714L183.954 19.2843L183.962 19.2941L184.744 18.6714ZM183.888 18.9634L183.076 19.5477L183.082 19.5556L183.088 19.5634L183.888 18.9634ZM183.57 18.7222L183.159 19.6335L183.176 19.6414L183.194 19.6486L183.57 18.7222ZM182.65 18.7222L183.036 19.6444L183.049 19.6391L183.061 19.6335L182.65 18.7222ZM182.345 18.9634L183.161 19.5414L183.167 19.5336L183.172 19.5257L182.345 18.9634ZM182.345 19.7124L183.172 19.1501L182.345 19.7124ZM182.65 19.96L182.238 20.8713L182.256 20.8792L182.273 20.8864L182.65 19.96ZM183.576 19.96L183.963 20.8822L183.97 20.8792L183.977 20.8761L183.576 19.96ZM183.888 19.7124L183.076 19.1281L183.068 19.139L183.061 19.1501L183.888 19.7124ZM184.643 17.7954L183.849 17.1873L183.847 17.1899L184.643 17.7954ZM184.027 18.2524L184.401 19.18L184.414 19.1746L184.027 18.2524ZM182.205 18.2524L181.819 19.1746L181.828 19.1784L181.837 19.1819L182.205 18.2524ZM181.583 17.7954L180.781 18.3927L180.788 18.4023L180.796 18.4117L181.583 17.7954ZM181.583 16.3418L180.777 15.7497L180.77 15.7606L181.583 16.3418ZM182.205 15.8721L182.579 16.7995L182.587 16.7964L182.205 15.8721ZM184.014 15.8721L183.628 16.7943L183.637 16.798L183.646 16.8016L184.014 15.8721ZM183.773 16.8306L182.919 17.3505L182.932 17.3726L182.947 17.3939L183.773 16.8306ZM183.513 16.6021L183.066 17.4965L183.072 17.4998L183.079 17.5031L183.513 16.6021ZM182.447 17.5034L181.592 18.0234L181.6 18.0367L181.609 18.0497L182.447 17.5034ZM183.665 17.6367L183.007 16.8841L183.001 16.8893L182.995 16.8946L183.665 17.6367ZM183.992 19.4141C183.992 19.5503 183.96 19.5932 183.95 19.6064L185.539 20.8213C185.859 20.4029 185.992 19.9126 185.992 19.4141H183.992ZM183.948 19.6088C183.915 19.653 183.853 19.711 183.716 19.764L184.44 21.6286C184.87 21.4615 185.253 21.1979 185.541 20.819L183.948 19.6088ZM183.728 19.7594C183.574 19.8169 183.376 19.855 183.119 19.855V21.855C183.574 21.855 184.015 21.7873 184.428 21.6332L183.728 19.7594ZM183.119 19.855C182.863 19.855 182.665 19.8169 182.511 19.7594L181.811 21.6332C182.224 21.7873 182.665 21.855 183.119 21.855V19.855ZM182.523 19.764C182.383 19.7098 182.309 19.6468 182.263 19.5892L180.701 20.8386C180.993 21.2041 181.372 21.4627 181.799 21.6286L182.523 19.764ZM182.276 19.6064C182.266 19.5932 182.234 19.5503 182.234 19.4141H180.234C180.234 19.9126 180.367 20.4029 180.687 20.8213L182.276 19.6064ZM182.234 19.4141C182.234 19.3254 182.254 19.2991 182.266 19.2842L180.685 18.0586C180.375 18.4584 180.234 18.9272 180.234 19.4141H182.234ZM182.258 19.2941C182.3 19.2415 182.374 19.1762 182.522 19.1165L181.774 17.2614C181.356 17.4303 180.981 17.6866 180.693 18.0486L182.258 19.2941ZM182.522 19.1165C182.668 19.0578 182.859 19.0176 183.113 19.0176V17.0176C182.648 17.0176 182.196 17.0916 181.774 17.2614L182.522 19.1165ZM183.113 19.0176C183.367 19.0176 183.558 19.0578 183.704 19.1165L184.452 17.2614C184.03 17.0916 183.579 17.0176 183.113 17.0176V19.0176ZM183.704 19.1165C183.851 19.1756 183.919 19.2384 183.954 19.2842L185.535 18.0586C185.249 17.6897 184.872 17.4308 184.452 17.2614L183.704 19.1165ZM183.962 19.2941C183.974 19.3089 183.992 19.3318 183.992 19.4141H185.992C185.992 18.9208 185.845 18.4486 185.527 18.0486L183.962 19.2941ZM185.002 19.3379C185.002 19.0108 184.914 18.6657 184.688 18.3634L183.088 19.5634C183.054 19.5187 183.031 19.4704 183.017 19.425C183.003 19.3811 183.002 19.3496 183.002 19.3379H185.002ZM184.699 18.3791C184.5 18.1025 184.235 17.9127 183.947 17.7957L183.194 19.6486C183.188 19.6462 183.17 19.638 183.146 19.6199C183.121 19.6013 183.097 19.5768 183.076 19.5477L184.699 18.3791ZM183.982 17.8108C183.697 17.6824 183.4 17.6333 183.113 17.6333V19.6333C183.173 19.6333 183.18 19.6434 183.159 19.6335L183.982 17.8108ZM183.113 17.6333C182.826 17.6333 182.525 17.6811 182.238 17.8108L183.061 19.6335C183.037 19.6447 183.045 19.6333 183.113 19.6333V17.6333ZM182.263 17.8C181.974 17.9212 181.711 18.1177 181.518 18.4011L183.172 19.5257C183.15 19.5578 183.124 19.5858 183.096 19.6078C183.069 19.6293 183.047 19.6401 183.036 19.6444L182.263 17.8ZM181.529 18.3854C181.316 18.6861 181.237 19.023 181.237 19.3379H183.237C183.237 19.3447 183.236 19.3709 183.225 19.4101C183.213 19.4507 183.193 19.4967 183.161 19.5414L181.529 18.3854ZM181.237 19.3379C181.237 19.6564 181.32 19.9829 181.518 20.2747L183.172 19.1501C183.196 19.186 183.214 19.2249 183.225 19.2626C183.236 19.2992 183.237 19.3261 183.237 19.3379H181.237ZM181.518 20.2747C181.706 20.5514 181.961 20.746 182.238 20.8713L183.061 19.0486C183.066 19.0509 183.083 19.0593 183.106 19.0775C183.129 19.0962 183.152 19.1207 183.172 19.1501L181.518 20.2747ZM182.273 20.8864C182.551 20.9993 182.84 21.0425 183.119 21.0425V19.0425C183.044 19.0425 183.019 19.0307 183.026 19.0335L182.273 20.8864ZM183.119 21.0425C183.397 21.0425 183.686 20.9985 183.963 20.8822L183.19 19.0378C183.205 19.0315 183.189 19.0425 183.119 19.0425V21.0425ZM183.977 20.8761C184.258 20.7534 184.521 20.5592 184.714 20.2747L183.061 19.1501C183.083 19.1168 183.109 19.0904 183.133 19.0712C183.156 19.0527 183.173 19.045 183.176 19.0438L183.977 20.8761ZM184.699 20.2967C184.91 20.0031 185.002 19.6687 185.002 19.3379H183.002C183.002 19.321 183.004 19.2889 183.017 19.2476C183.03 19.2054 183.05 19.1642 183.076 19.1281L184.699 20.2967ZM183.871 17.1035C183.871 17.1572 183.861 17.1716 183.849 17.1873L185.437 18.4035C185.729 18.0214 185.871 17.5746 185.871 17.1035H183.871ZM183.847 17.1899C183.821 17.2236 183.768 17.2769 183.64 17.3302L184.414 19.1746C184.811 19.0079 185.168 18.7566 185.439 18.4009L183.847 17.1899ZM183.653 17.325C183.532 17.3739 183.36 17.4111 183.119 17.4111V19.4111C183.564 19.4111 183.998 19.3426 184.401 19.1799L183.653 17.325ZM183.119 17.4111C182.879 17.4111 182.703 17.374 182.574 17.323L181.837 19.1819C182.241 19.3424 182.674 19.4111 183.119 19.4111V17.4111ZM182.592 17.3302C182.463 17.2762 182.403 17.2201 182.371 17.1791L180.796 18.4117C181.068 18.76 181.423 19.0086 181.819 19.1746L182.592 17.3302ZM182.385 17.1981C182.374 17.1822 182.361 17.164 182.361 17.1035H180.361C180.361 17.5678 180.497 18.0108 180.781 18.3927L182.385 17.1981ZM182.361 17.1035C182.361 16.9731 182.391 16.932 182.397 16.923L180.77 15.7606C180.48 16.1663 180.361 16.633 180.361 17.1035H182.361ZM182.389 16.9339C182.421 16.8909 182.472 16.843 182.579 16.7995L181.831 14.9446C181.414 15.1128 181.051 15.3779 180.777 15.7497L182.389 16.9339ZM182.587 16.7964C182.713 16.7442 182.883 16.707 183.113 16.707V14.707C182.666 14.707 182.231 14.7798 181.824 14.9477L182.587 16.7964ZM183.113 16.707C183.344 16.707 183.509 16.7444 183.628 16.7943L184.401 14.9499C183.995 14.7797 183.56 14.707 183.113 14.707V16.707ZM183.646 16.8016C183.758 16.8463 183.808 16.8947 183.837 16.9339L185.449 15.7497C185.173 15.3742 184.804 15.1094 184.383 14.9426L183.646 16.8016ZM183.837 16.9339C183.843 16.942 183.871 16.9791 183.871 17.1035H185.871C185.871 16.627 185.747 16.1563 185.449 15.7497L183.837 16.9339ZM184.868 17.167C184.868 16.8687 184.794 16.5523 184.599 16.2672L182.947 17.3939C182.916 17.3484 182.895 17.3008 182.882 17.2568C182.87 17.214 182.868 17.1821 182.868 17.167H184.868ZM184.627 16.3106C184.457 16.0301 184.215 15.83 183.947 15.701L183.079 17.5031C183.063 17.495 183.035 17.4792 183.004 17.4519C182.972 17.424 182.943 17.3896 182.919 17.3505L184.627 16.3106ZM183.96 15.7076C183.679 15.5669 183.384 15.5195 183.113 15.5195V17.5195C183.156 17.5195 183.127 17.5272 183.066 17.4965L183.96 15.7076ZM183.113 15.5195C182.719 15.5195 182.282 15.6179 181.916 15.9266L183.206 17.4552C183.163 17.4917 183.121 17.5099 183.097 17.5174C183.075 17.5241 183.077 17.5195 183.113 17.5195V15.5195ZM181.916 15.9266C181.521 16.2599 181.358 16.7174 181.358 17.167H183.358C183.358 17.1767 183.356 17.2234 183.328 17.2881C183.299 17.3564 183.254 17.4144 183.206 17.4552L181.916 15.9266ZM181.358 17.167C181.358 17.4558 181.427 17.7519 181.592 18.0234L183.301 16.9835C183.322 17.0186 183.337 17.0555 183.347 17.0909C183.356 17.1256 183.358 17.1523 183.358 17.167H181.358ZM181.609 18.0497C181.781 18.3137 182.016 18.5062 182.279 18.6329L183.147 16.8309C183.162 16.8379 183.185 16.8514 183.212 16.8743C183.239 16.8975 183.264 16.9257 183.284 16.9572L181.609 18.0497ZM182.279 18.6329C182.557 18.7666 182.847 18.8145 183.119 18.8145V16.8145C183.079 16.8145 183.098 16.8073 183.147 16.8309L182.279 18.6329ZM183.119 18.8145C183.52 18.8145 183.969 18.7102 184.336 18.3788L182.995 16.8946C183.042 16.8521 183.089 16.8294 183.121 16.8191C183.149 16.8101 183.153 16.8145 183.119 16.8145V18.8145ZM184.324 18.3893C184.696 18.0641 184.868 17.6234 184.868 17.167H182.868C182.868 17.147 182.872 17.097 182.9 17.0335C182.928 16.968 182.969 16.9172 183.007 16.8841L184.324 18.3893Z" fill="black" fill-opacity="0.1"/>
<mask id="path-15-outside-5_236_1972" maskUnits="userSpaceOnUse" x="98" y="10" width="16" height="22" fill="black">
<rect fill="white" x="98" y="10" width="16" height="22"/>
<path fill-rule="evenodd" clip-rule="evenodd" d="M99 18H103L108 13V29L103 24H99V18ZM110 17V25L111.65 22.8C112.45 21.7333 112.45 20.2667 111.65 19.2L110 17Z"/>
</mask>
<path fill-rule="evenodd" clip-rule="evenodd" d="M99 18H103L108 13V29L103 24H99V18ZM110 17V25L111.65 22.8C112.45 21.7333 112.45 20.2667 111.65 19.2L110 17Z" fill="#EAEAEA"/>
<path d="M103 18V19H103.414L103.707 18.7071L103 18ZM99 18V17H98V18H99ZM108 13H109V10.5858L107.293 12.2929L108 13ZM108 29L107.293 29.7071L109 31.4142V29H108ZM103 24L103.707 23.2929L103.414 23H103V24ZM99 24H98V25H99V24ZM110 25H109V28L110.8 25.6L110 25ZM110 17L110.8 16.4L109 14V17H110ZM111.65 22.8L110.85 22.2L111.65 22.8ZM111.65 19.2L110.85 19.8L111.65 19.2ZM103 17H99V19H103V17ZM107.293 12.2929L102.293 17.2929L103.707 18.7071L108.707 13.7071L107.293 12.2929ZM109 29V13H107V29H109ZM102.293 24.7071L107.293 29.7071L108.707 28.2929L103.707 23.2929L102.293 24.7071ZM99 25H103V23H99V25ZM98 18V24H100V18H98ZM111 25V17H109V25H111ZM110.85 22.2L109.2 24.4L110.8 25.6L112.45 23.4L110.85 22.2ZM110.85 19.8C111.383 20.5111 111.383 21.4889 110.85 22.2L112.45 23.4C113.517 21.9778 113.517 20.0222 112.45 18.6L110.85 19.8ZM109.2 17.6L110.85 19.8L112.45 18.6L110.8 16.4L109.2 17.6Z" fill="black" fill-opacity="0.1" mask="url(#path-15-outside-5_236_1972)"/>
<mask id="path-17-outside-6_236_1972" maskUnits="userSpaceOnUse" x="66" y="13" width="14" height="16" fill="black">
<rect fill="white" x="66" y="13" width="14" height="16"/>
<path fill-rule="evenodd" clip-rule="evenodd" d="M67 15L75 21L67 27V15ZM79 15H77V27H79V15Z"/>
</mask>
<path fill-rule="evenodd" clip-rule="evenodd" d="M67 15L75 21L67 27V15ZM79 15H77V27H79V15Z" fill="#EAEAEA"/>
<path d="M75 21L75.6 21.8L76.6667 21L75.6 20.2L75 21ZM67 15L67.6 14.2L66 13V15H67ZM67 27H66V29L67.6 27.8L67 27ZM77 15V14H76V15H77ZM79 15H80V14H79V15ZM77 27H76V28H77V27ZM79 27V28H80V27H79ZM75.6 20.2L67.6 14.2L66.4 15.8L74.4 21.8L75.6 20.2ZM67.6 27.8L75.6 21.8L74.4 20.2L66.4 26.2L67.6 27.8ZM66 15V27H68V15H66ZM77 16H79V14H77V16ZM78 27V15H76V27H78ZM79 26H77V28H79V26ZM78 15V27H80V15H78Z" fill="black" fill-opacity="0.1" mask="url(#path-17-outside-6_236_1972)"/>
<path d="M26 29V13L39 21L26 29Z" fill="#EAEAEA"/>
<path d="M25.5 29V29.8948L26.262 29.4258L39.262 21.4258L39.954 21L39.262 20.5742L26.262 12.5742L25.5 12.1052V13V29Z" stroke="black" stroke-opacity="0.1"/>
<rect x="9" width="400" height="3" fill="#EAEAEA" fill-opacity="0.2"/>
<rect x="0.975098" width="208.025" height="3" fill="#EAEAEA" fill-opacity="0.5"/>
<rect x="0.975098" width="139.125" height="3" fill="#FC0D1C"/>
<defs>
<filter id="filter0_d_236_1972" x="285" y="15" width="9" height="6" filterUnits="userSpaceOnUse" color-interpolation-filters="sRGB">
<feFlood flood-opacity="0" result="BackgroundImageFix"/>
<feColorMatrix in="SourceAlpha" type="matrix" values="0 0 0 0 0 0 0 0 0 0 0 0 0 0 0 0 0 0 127 0" result="hardAlpha"/>
<feOffset dy="1"/>
<feColorMatrix type="matrix" values="0 0 0 0 0.337255 0 0 0 0 0.0392157 0 0 0 0 0.0588235 0 0 0 1 0"/>
<feBlend mode="normal" in2="BackgroundImageFix" result="effect1_dropShadow_236_1972"/>
<feBlend mode="normal" in="SourceGraphic" in2="effect1_dropShadow_236_1972" result="shape"/>
</filter>
</defs>
</svg>
