<svg width="32" height="32" viewBox="0 0 32 32" fill="none" xmlns="http://www.w3.org/2000/svg">
<g filter="url(#filter0_d_226_1186)">
<path d="M14 12H12V14H10V12H8V10H10V8H12V10H14V12ZM21 12.5C21 11.67 20.33 11 19.5 11C18.67 11 18 11.67 18 12.5C18 13.33 18.67 14 19.5 14C20.33 14 21 13.33 21 12.5ZM24 9.5C24 8.67 23.33 8 22.5 8C21.67 8 21 8.67 21 9.5C21 10.33 21.67 11 22.5 11C23.33 11 24 10.33 24 9.5ZM20.97 5.15L16.47 7.68L15.98 7.95L15.49 7.68L10.99 5.15L7 7.39V13.82L15.98 18.86L24.96 13.82V7.39L20.97 5.15ZM20.97 4L25.96 6.8V14.4L15.98 20L6 14.4V6.8L10.99 4L15.98 6.8L20.97 4Z" fill="white"/>
</g>
<defs>
<filter id="filter0_d_226_1186" x="0" y="0" width="32" height="32" filterUnits="userSpaceOnUse" color-interpolation-filters="sRGB">
<feFlood flood-opacity="0" result="BackgroundImageFix"/>
<feColorMatrix in="SourceAlpha" type="matrix" values="0 0 0 0 0 0 0 0 0 0 0 0 0 0 0 0 0 0 127 0" result="hardAlpha"/>
<feOffset dy="4"/>
<feGaussianBlur stdDeviation="2"/>
<feComposite in2="hardAlpha" operator="out"/>
<feColorMatrix type="matrix" values="0 0 0 0 0 0 0 0 0 0 0 0 0 0 0 0 0 0 0.25 0"/>
<feBlend mode="normal" in2="BackgroundImageFix" result="effect1_dropShadow_226_1186"/>
<feBlend mode="normal" in="SourceGraphic" in2="effect1_dropShadow_226_1186" result="shape"/>
</filter>
</defs>
</svg>
